# xmcd
#
# Track frame offsets: 
#        150
#        16779
#        36018
#        53550
#        71276
#        93744
#        115262
#        129660
#        145027
#        159564
#        178013
#        202702
#        216578
#        234465
#        254199
#
# Disc length: 3607 seconds
#
# Revision: 2
# Processed by: cddbd v1.5.2PL0 Copyright (c) Steve Scherf et al.
# Submitted via: ExactAudioCopy v0.99pb4
#
DISCID=d20e150f
DTITLE=Χατζηγιάννης Μιχάλης - Μόνος μου
DYEAR=2003
DGENRE=Greek Pop
TTITLE0=Αν μου τηλεφωνούσες
TTITLE1=Μόνος μου
TTITLE2=Είσαι εδώ (deep house mix)
TTITLE3=Θέλω να χαθώ (freedom mix)
TTITLE4=Πάρτυ (unplugged)
TTITLE5=Μόνο στα όνειρα
TTITLE6=Αγγιγμα ψυχής
TTITLE7=Και θα χαθώ
TTITLE8=Το σώμα που ζητάς
TTITLE9=Δεν έχω χρόνο
TTITLE10=Οι τίτλοι του τέλους
TTITLE11=Είμαι σκιά που γυρνά
TTITLE12=Χειμώνας
TTITLE13=Είσαι εδώ
TTITLE14=Χωρίς αναπνοή
EXTD=
EXTT0=
EXTT1=
EXTT2=
EXTT3=
EXTT4=
EXTT5=
EXTT6=
EXTT7=
EXTT8=
EXTT9=
EXTT10=
EXTT11=
EXTT12=
EXTT13=
EXTT14=
PLAYORDER=
